<?xml version="1.0" encoding="UTF-8"?><svg id="Layer_1" xmlns="http://www.w3.org/2000/svg" viewBox="0 0 34.36 43.84"><defs><style>.cls-1{fill:#fff;}.cls-2{fill:none;stroke:#fff;stroke-width:.6px;}</style></defs><g><g><path class="cls-1" d="m1.99.84H.04V.11h4.75v.73h-1.95v3.63h-.85V.84Z"/><path class="cls-1" d="m5.34.11h.85v1.73h2.93V.11h.85v4.36h-.85v-1.88h-2.93v1.88h-.85V.11Z"/><path class="cls-1" d="m10.8.11h3.91v.73h-3.06v1.01h2.64v.73h-2.64v1.15h3.13v.73h-3.99V.11Z"/><path class="cls-1" d="m21.11.11h.97l2.12,4.36h-.9l-.46-1h-2.52l-.46,1h-.91L21.11.11Zm1.4,2.63l-.91-1.94-.91,1.94h1.83Z"/><path class="cls-1" d="m29.52,4.58c-.69,0-1.27-.3-1.56-.52l-.2.13c-.55.28-.98.38-1.6.38-1.09,0-1.82-.48-1.82-1.36,0-.7.61-1.15,1.21-1.33l.19-.05-.1-.14c-.17-.23-.23-.47-.23-.68,0-.68.62-1.02,1.25-1.02.67,0,1.33.3,1.33,1.04,0,.66-.5.98-.93,1.14l-.07.02.05.05c.26.27.55.56.83.79l.14.11.05-.04c.33-.26.62-.67.8-.95l.05-.08.67.35-.05.08c-.22.35-.46.66-.76.96l-.14.13c.25.18.62.24.89.24h.16v.73h-.15Zm-3.36-.71c.35,0,.67-.09,1-.21l.19-.08-.19-.16c-.25-.21-.53-.49-.85-.82l-.16-.18-.17.06c-.34.11-.82.31-.82.73,0,.52.59.67,1,.67Zm.5-2.25c.29-.1.58-.29.58-.62s-.24-.51-.57-.51-.55.2-.55.53c0,.2.16.4.29.54l.11.1.14-.04Z"/><path class="cls-1" d="m30.26.11h4.02v.73h-3.16v1.01h2.72v.73h-2.72v1.88h-.85V.11Z"/><path class="cls-1" d="m4.78,33.75v2.29h-.52l-.17-.45c-.33.22-.79.51-1.63.51-1.12,0-2.47-.55-2.47-2.28,0-1.16.7-2.3,2.44-2.3,1,0,2.1.37,2.31,1.47h-.87c-.1-.22-.34-.74-1.34-.74-1.37,0-1.69.92-1.69,1.53,0,1.03.7,1.56,1.62,1.56.84,0,1.31-.29,1.51-.91h-1.53v-.68h2.33Z"/><path class="cls-1" d="m5.53,31.62h3.91v.73h-3.06v1.01h2.64v.73h-2.64v1.15h3.13v.73h-3.99v-4.36Z"/><path class="cls-1" d="m11.78,32.36h-1.95v-.73h4.75v.73h-1.95v3.63h-.85v-3.63Z"/><path class="cls-1" d="m16.04,31.62h.97l2.12,4.36h-.9l-.46-1h-2.51l-.46,1h-.91l2.15-4.36Zm1.4,2.63l-.91-1.94-.91,1.94h1.82Z"/><path class="cls-1" d="m18.98,31.62h.85l.84,3h.01l.83-3h.82l.85,3h.01l.83-3h.83l-1.27,4.36h-.82l-.83-3.1h-.01l-.83,3.1h-.83l-1.28-4.36Z"/><path class="cls-1" d="m26.86,31.62h.97l2.12,4.36h-.9l-.46-1h-2.51l-.46,1h-.91l2.15-4.36Zm1.4,2.63l-.91-1.94-.91,1.94h1.82Z"/><path class="cls-1" d="m31.38,34.24l-2.13-2.62h1.04l1.51,1.85,1.51-1.85h1.05l-2.13,2.62v1.75h-.85v-1.75Z"/><path class="cls-1" d="m11.54,40.7c-.14-.39-.49-.73-1.53-.73-.58,0-1.16.14-1.16.55,0,.19.11.38.98.49l1.03.16c.98.15,1.55.53,1.55,1.26,0,1.03-.98,1.42-2.15,1.42-1.87,0-2.33-.92-2.43-1.25l.82-.26c.16.32.48.78,1.63.78.7,0,1.27-.23,1.27-.61,0-.28-.32-.47-.95-.55l-1.04-.14c-1.01-.14-1.57-.58-1.57-1.24,0-1.31,1.7-1.31,2.04-1.31,1.88,0,2.2.87,2.31,1.17l-.8.26Z"/><path class="cls-1" d="m13.05,39.37h.85v1.73h2.93v-1.73h.85v4.36h-.85v-1.88h-2.93v1.88h-.85v-4.36Z"/><path class="cls-1" d="m20.94,39.26c1.92,0,2.6,1.13,2.6,2.32,0,.91-.53,2.26-2.6,2.26s-2.6-1.35-2.6-2.26c0-1.19.68-2.32,2.6-2.32Zm1.75,2.28c0-1.05-.75-1.54-1.75-1.54s-1.75.49-1.75,1.54c0,1.24.93,1.57,1.75,1.57s1.75-.34,1.75-1.57Z"/><path class="cls-1" d="m24.2,39.37h2.43c.74,0,1.95,0,1.95,1.34s-1.21,1.33-1.95,1.33h-1.58v1.69h-.85v-4.36Zm2.62,1.94c.49,0,.91-.04.91-.61s-.43-.6-.91-.6h-1.76v1.21h1.76Z"/></g><path class="cls-1" d="m12.68,16.14c0,.06.03.11.08.13.05.02.11.02.15-.02,0,0,.56-.47,1.35-.7.44-.13.86-.16,1.26-.1-.27.05-.53.15-.76.33-.39.29-.64.71-.71,1.19-.07.48.05.95.34,1.34.03.04.07.06.12.06,0,0,.02,0,.03,0,.06-.01.1-.05.11-.11,0,0,.13-.54.51-1.04.4-.52.92-.81,1.54-.85-.02.44-.2,4.19-.48,7.15,0,.04,0,.08.04.11.03.03.07.05.11.05h1.6s.08-.02.11-.05.04-.07.04-.11c-.28-2.97-.46-6.73-.48-7.15.65.02,1.19.31,1.6.85.38.5.5,1.03.51,1.04.01.06.06.1.11.11,0,0,.02,0,.03,0,.05,0,.09-.02.12-.06.29-.39.41-.86.34-1.34-.07-.48-.32-.9-.71-1.19-.23-.17-.5-.28-.78-.33.39-.05.8-.02,1.23.1.79.23,1.35.7,1.36.71.04.04.1.04.15.02.05-.02.08-.08.08-.13,0-1.28-1.04-2.33-2.33-2.33-.46,0-.9.14-1.26.37.35-.39.81-.64,1.37-.76.73-.15,1.37-.02,1.37-.01.06.01.11,0,.15-.05.03-.05.04-.11.01-.16-.55-1.03-1.83-1.42-2.85-.87-.47.25-.8.65-.97,1.1-.18-.46-.51-.86-.97-1.1-1.03-.55-2.31-.16-2.85.87-.03.05-.02.11.01.16.03.05.09.07.15.05,0,0,.65-.14,1.37.01.57.12,1.03.38,1.38.76-.36-.23-.79-.37-1.25-.37-1.28,0-2.32,1.04-2.32,2.32h0Z"/></g><g><ellipse class="cls-2" cx="17.18" cy="17.89" rx="16.64" ry="10.28"/><ellipse class="cls-2" cx="17.18" cy="17.89" rx="13.55" ry="8.02"/></g></svg>